# xmcd
#
# Track frame offsets:
#	150
#	15850
#	50150
#	69860
#	83722
#	104437
#	130240
#	151035
#	171105
#	185927
#	209572
#	228992
#
# Disc length: 3335 seconds
#
# Revision: 2
# Processed by: cddbd v1.4PL0 Copyright (c) Steve Scherf et al.
# Submitted via: EasyCDDAExtractor 5.0.7
#
DISCID=9a0d050c
DTITLE=Various Artist - Blues Across America
DYEAR=1900
DGENRE=Blues
TTITLE0=I Love god women (Johnnie Bassett)
TTITLE1=I'll Get Over You  (Johnnie Bassett)
TTITLE2=I'm a basset hound baby  (Johnnie Bassett)
TTITLE3=BBQ Blues (Johnnie Basset)
TTITLE4=Don't you know your daddy loves you  (The butler twins)
TTITLE5=Fat Man (The Butler Twins)
TTITLE6=Alabama Boogies (The Butler Twins)
TTITLE7=Might As Well (The Butler Twins)
TTITLE8=Say Baby Say (Alberta Adams)
TTITLE9=Remember me (Alberta Adams)
TTITLE10=Keeping The Blues (Alberta Adams)
TTITLE11=Hello Little Boy (Alberta Adams)
EXTD=
EXTT0=
EXTT1=
EXTT2=
EXTT3=
EXTT4=
EXTT5=
EXTT6=
EXTT7=
EXTT8=
EXTT9=
EXTT10=
EXTT11=
PLAYORDER=
